<?xml version="1.0"?>
<svg width="883" height="711.86" xmlns="http://www.w3.org/2000/svg" xmlns:svg="http://www.w3.org/2000/svg" xmlns:se="http://svg-edit.googlecode.com" xmlns:xlink="http://www.w3.org/1999/xlink" data-name="Layer 1">
 <defs>
  <linearGradient id="eab5defd-bb13-45ae-a86e-22d39d3e2cea" x1="0.500044" x2="0.500044" y1="0.999935" y2="-0.000005">
   <stop offset="0" stop-color="gray" stop-opacity="0.25"/>
   <stop offset="0.54" stop-color="gray" stop-opacity="0.12"/>
   <stop offset="1" stop-color="gray" stop-opacity="0.1"/>
  </linearGradient>
  <linearGradient id="666c504c-cd42-41b9-a03e-d98f4dda3eb5" x1="199.26" x2="199.26" xlink:href="#eab5defd-bb13-45ae-a86e-22d39d3e2cea" y1="162.3" y2="0"/>
  <linearGradient gradientTransform="matrix(-1, 0, 0, 1, 3466, 0)" id="8e152b24-383a-4e7d-b315-0bee7e3d74a2" x1="2855.02" x2="2855.02" xlink:href="#eab5defd-bb13-45ae-a86e-22d39d3e2cea" y1="635.26" y2="635.22"/>
  <linearGradient gradientTransform="matrix(-1, 0, 0, 1, 3466, 0)" id="8f2a7dfd-1602-45be-be61-6ebd6ab5a03b" x1="2849.78" x2="2849.78" xlink:href="#eab5defd-bb13-45ae-a86e-22d39d3e2cea" y1="664.28" y2="634.41"/>
  <linearGradient id="1fbefcf2-1d0d-411f-b7ef-97a6712cae01" x1="910.63" x2="910.63" xlink:href="#eab5defd-bb13-45ae-a86e-22d39d3e2cea" y1="452.78" y2="204.14"/>
 </defs>
 <title>air support</title>
 <g class="layer">
  <title>Layer 1</title>
  <rect fill="#f2f2f2" height="21.69" id="svg_1" rx="9.96" ry="9.96" width="200.86" x="636.34" y="24.91"/>
  <rect fill="#f2f2f2" height="21.69" id="svg_2" rx="9.96" ry="9.96" width="200.86" x="681.33" y="43.39"/>
  <rect fill="#f2f2f2" height="21.69" id="svg_3" rx="9.96" ry="9.96" width="200.86" x="605" y="59.46"/>
  <rect fill="#f2f2f2" height="21.69" id="svg_4" rx="9.96" ry="9.96" width="200.86" x="292.46" y="273.18"/>
  <rect fill="#f2f2f2" height="21.69" id="svg_5" rx="9.96" ry="9.96" width="200.86" x="337.45" y="291.66"/>
  <rect fill="#f2f2f2" height="21.69" id="svg_6" rx="9.96" ry="9.96" width="200.86" x="261.12" y="307.72"/>
  <g id="svg_7" opacity="0.5">
   <path d="m1011,780.22c-4.82,0 -115.7,48.21 -244.25,-78.74c-69.81,-68.93 -138.19,-76.27 -186.11,-68.58c-29.45,4.72 -56.34,19.1 -77.64,39.93c-17.13,16.82 -58.59,39.74 -155.73,33.48c-149.44,-9.64 -188.81,97.22 -188.81,97.22l883,0s-25.67,-23.31 -30.46,-23.31z" fill="url(#eab5defd-bb13-45ae-a86e-22d39d3e2cea)" id="svg_8" transform="translate(-158.5 -94.07)"/>
  </g>
  <path d="m158.5,805.93s39.37,-106.86 188.81,-97.22c97.14,6.29 138.61,-16.66 155.69,-33.47c21.26,-20.87 48.14,-35.21 77.56,-39.93c47.92,-7.69 116.31,-0.35 186.11,68.58c128.55,126.95 239.43,78.74 244.25,78.74s30.53,23.3 30.53,23.3l-882.95,0z" fill="#f2f2f2" id="svg_9" transform="translate(-158.5 -94.07)"/>
  <path d="m158.5,805.93s39.37,-106.86 188.81,-97.22c97.14,6.29 138.61,-16.66 155.69,-33.47c21.26,-20.87 48.14,-35.21 77.56,-39.93c47.92,-7.69 116.31,-0.35 186.11,68.58c128.55,126.95 239.43,78.74 244.25,78.74s30.53,23.3 30.53,23.3l-882.95,0z" id="svg_10" opacity="0.02" transform="translate(-158.5 -94.07)"/>
  <rect fill="#f2f2f2" height="21.69" id="svg_11" rx="9.96" ry="9.96" width="200.86" x="91.59" y="123.73"/>
  <rect fill="#f2f2f2" height="21.69" id="svg_12" rx="9.96" ry="9.96" width="200.86" x="136.59" y="142.21"/>
  <rect fill="#f2f2f2" height="21.69" id="svg_13" rx="9.96" ry="9.96" width="200.86" x="60.26" y="158.28"/>
  <g id="svg_14" opacity="0.5">
   <circle cx="199.26" cy="81.15" fill="url(#666c504c-cd42-41b9-a03e-d98f4dda3eb5)" id="svg_15" r="81.15"/>
  </g>
  <circle cx="199.26" cy="81.15" fill="#fccc63" id="svg_16" r="72.31"/>
  <rect fill="#2762f4" height="46.73" id="svg_17" width="62.9" x="160.98" y="590.63"/>
  <path d="m314,682.8l35.15,-35.15a2.74,2.74 0 0 1 3.88,0l34.87,34.87a2.74,2.74 0 0 1 -1.93,4.68l-70,0.28a2.74,2.74 0 0 1 -1.97,-4.68z" fill="#2762f4" id="svg_18" transform="translate(-158.5 -94.07)"/>
  <path d="m314,682.8l35.15,-35.15a2.74,2.74 0 0 1 3.88,0l34.87,34.87a2.74,2.74 0 0 1 -1.93,4.68l-70,0.28a2.74,2.74 0 0 1 -1.97,-4.68z" id="svg_19" opacity="0.05" transform="translate(-158.5 -94.07)"/>
  <path d="m191.62,616.28l1.26,0a7.1,7.1 0 0 1 7.1,7.1l0,14a0,0 0 0 1 0,0l-15.46,0a0,0 0 0 1 0,0l0,-14a7.1,7.1 0 0 1 7.1,-7.1z" fill="#fff" id="svg_20"/>
  <circle cx="192.6" cy="562.17" fill="#fff" id="svg_21" r="3.87"/>
  <rect fill="#fff" height="11.24" id="svg_22" width="14.76" x="165.9" y="596.6"/>
  <rect fill="#2762f4" height="11.24" id="svg_23" width="1.41" x="172.57" y="596.6"/>
  <rect fill="#fff" height="11.24" id="svg_24" width="14.76" x="205.25" y="596.6"/>
  <rect fill="#2762f4" height="11.24" id="svg_25" width="1.41" x="211.93" y="596.6"/>
  <g id="svg_26" opacity="0.2">
   <path d="m611,635.22l0,0c-0.13,-0.03 0,0 0,0z" fill="url(#8e152b24-383a-4e7d-b315-0bee7e3d74a2)" id="svg_27" transform="translate(-158.5 -94.07)"/>
  </g>
  <g id="svg_28" opacity="0.2">
   <path d="m612.45,664.26l0.12,0a0.14,0.14 0 0 0 0.09,-0.12a0.32,0.32 0 0 0 0,-0.12l0,-0.1c-0.1,-0.24 -0.33,-0.56 -0.46,-0.84l-0.06,-0.15a1.15,1.15 0 0 1 0,-0.2s0,-0.06 0,-0.09l2.16,-7.09l0,0l0.05,-0.17s2.75,1.18 3.46,3.54a5.54,5.54 0 0 1 0.06,3.55l0,0l0,0l-0.05,0.12l0.05,0l0,1.3l3,0c0.21,-0.1 -0.07,-0.36 -0.35,-0.62l-0.07,-0.07l-0.18,-0.19l0,0a0.94,0.94 0 0 1 -0.13,-0.19l-0.05,-0.12l0,-0.07l-0.09,0l0,-0.11a10.21,10.21 0 0 0 -3.06,-9.66l0,0a10.46,10.46 0 0 0 0,-6.65c0.28,-0.2 5.73,-4.14 5.69,-9.24a7,7 0 0 0 0,-0.82s0.47,-0.39 0,-1.1l0,-0.06l0,0l0,0l0,0l0,0l0,0l0,0l0,0l0,0l0,0l0,0l0,0l0,0l0,0l-0.05,0l-0.33,0a1.48,1.48 0 0 0 -0.61,0.2s-0.31,1 0,1.26l-0.08,0s-3.23,7 -5.39,8l-0.15,-0.09l0,-0.91a1.1,1.1 0 0 0 0,-0.12l0,0a1.09,1.09 0 0 0 0,-0.11a2.45,2.45 0 0 0 0.65,-0.49l0,0a2.45,2.45 0 0 0 0.2,-0.24l0,0l0.08,-0.12l0,0l0.08,-0.14l0,0l0.06,-0.13l0,0a2.42,2.42 0 0 0 0.11,-0.29l0,0l0,-0.12l0,0l0,-0.15l0,0s0,-0.08 0,-0.12l0,0c0,-0.05 0,-0.1 0,-0.16a2.43,2.43 0 0 0 -0.15,-0.84q0,-0.11 -0.09,-0.22l-0.05,-0.11l-0.07,-0.12a0.8,0.8 0 0 1 0.19,-0.17a1.13,1.13 0 0 1 0.45,-0.14l0.39,0l0.08,0a0.7,0.7 0 0 0 0.16,-0.09a0.73,0.73 0 0 1 0.26,-0.14l-0.59,0l-0.09,0l-0.08,0l-0.09,0l-0.08,0l-0.08,0l-0.08,0l-0.08,0l-0.08,0l0,0l-0.16,-0.07a0.86,0.86 0 0 0 0.26,0.06l0.34,0l0.06,0l0,0l0,0l0,0l0,0l0,0l0,0l0,0l0,0l0.06,-0.05l0,0l0,0l0,0l0,0l0,0l0,0l0,0l0,-0.08l-0.11,0l-0.07,0l0,0a1.52,1.52 0 0 1 -0.41,0l-0.29,0l0,0l-0.13,0l0,0l-0.12,-0.05l0,0a0.46,0.46 0 0 0 0.45,-1.24l0.11,-0.07a0.58,0.58 0 0 0 0.2,-0.39a0.44,0.44 0 0 0 0,-0.19l-0.07,0.06l-0.06,0a1,1 0 0 1 -0.65,0.18l-0.08,0a3,3 0 0 1 -0.59,-0.22l-0.17,-0.06l-0.05,0l-0.14,0l-0.08,0l-0.11,0l-0.53,0a3.05,3.05 0 0 0 -2,0.84a3,3 0 0 0 -0.34,0.4a3.92,3.92 0 0 1 0.39,-2.13l-0.06,0l0,0l-0.18,0l-0.09,0.17a2,2 0 0 1 0.27,-0.68l-0.06,0a0.81,0.81 0 0 0 0,-1.08c-0.47,-0.71 -1.34,-0.16 -1.34,-0.16a3.64,3.64 0 0 0 -0.14,0.71l-0.14,-0.06c-0.16,0.54 -1.94,6.74 1,10.7a2.47,2.47 0 0 0 0,0.25l0,6.68l-2,9.16l0,0l0,0l0,0l-0.39,1.73l2.81,0.46l-0.06,-0.04zm0.5,-21.65a2.44,2.44 0 0 0 0.52,0.33a1.09,1.09 0 0 0 0,0.19l0,0.87l-0.17,0.08c-0.13,-0.43 -0.24,-0.93 -0.36,-1.47l0.01,0z" fill="url(#8f2a7dfd-1602-45be-be61-6ebd6ab5a03b)" id="svg_29" transform="translate(-158.5 -94.07)"/>
  </g>
  <path d="m622.66,636.93s0.52,-0.44 0,-1.22s-1.48,-0.17 -1.48,-0.17s-0.35,1.13 0,1.39s1.48,0 1.48,0z" fill="#ca7070" id="svg_30" transform="translate(-158.5 -94.07)"/>
  <path d="m617.28,666.09l2.4,0a0.79,0.79 0 0 0 0.23,0.62c0.32,0.37 1,0.82 0.67,1l-3.3,0l0,-1.62z" data-name="&lt;Path&gt;" fill="#00695c" id="39458adb-bcd5-4769-9abe-182f7ae0ca71" transform="translate(-158.5 -94.07)"/>
  <path d="m619.73,666.71a0.79,0.79 0 0 1 -0.23,-0.62l0.17,0a0.79,0.79 0 0 0 0.23,0.62c0.32,0.37 1,0.82 0.67,1l-0.17,0c0.3,-0.18 -0.35,-0.63 -0.67,-1z" fill="#fff" id="svg_31" opacity="0.2" transform="translate(-158.5 -94.07)"/>
  <path d="m608.72,665.6l2.28,0.4a1.15,1.15 0 0 0 0.1,0.79c0.25,0.51 0.8,1.17 0.47,1.31l-3.25,-0.53l0.4,-1.97z" data-name="&lt;Path&gt;" fill="#00695c" id="24b3a5d5-99f8-4317-aac1-7589e0408752" transform="translate(-158.5 -94.07)"/>
  <path d="m609.82,635.87s-2.57,8.11 1.74,12.6l1.25,-1s-2.55,-8.85 -1.12,-10.93c-2.52,-0.79 -1.87,-0.67 -1.87,-0.67z" fill="#00695c" id="svg_32" transform="translate(-158.5 -94.07)"/>
  <path d="m611.6,636.58s0.52,-0.44 0,-1.22s-1.48,-0.17 -1.48,-0.17s-0.35,1.13 0,1.39s1.48,0 1.48,0z" fill="#ca7070" id="svg_33" transform="translate(-158.5 -94.07)"/>
  <path d="m610.9,666.75a1.15,1.15 0 0 1 -0.1,-0.79l-2.08,-0.34l0,0l2.28,0.38a1.15,1.15 0 0 0 0.1,0.79c0.25,0.51 0.8,1.17 0.47,1.31l-0.14,0c0.22,-0.24 -0.29,-0.86 -0.53,-1.35z" fill="#fff" id="svg_34" opacity="0.2" transform="translate(-158.5 -94.07)"/>
  <rect fill="#ca7070" height="3.62" id="svg_35" rx="1.12" ry="1.12" transform="translate(1068.97 1196.39) rotate(180)" width="2.44" x="612.51" y="643.42"/>
  <path d="m612.63,648s-2.52,-8.74 -1.15,-10.89l0.2,0l0,0l0.06,0c-1.43,2.08 1.12,10.93 1.12,10.93l-1.25,1l-0.11,-0.12l1.13,-0.92z" fill="#fff" id="svg_36" opacity="0.2" transform="translate(-158.5 -94.07)"/>
  <circle cx="455.19" cy="547.92" fill="#ca7070" id="svg_37" r="2.7"/>
  <path d="m614.65,645.82l0,-1.18a1.21,1.21 0 0 0 0,-0.26a2.7,2.7 0 0 0 -1.08,-5.1l0.15,0a2.7,2.7 0 0 1 1.24,5.1a1.21,1.21 0 0 1 0,0.26l0,1.18a1.22,1.22 0 0 1 -1.22,1.22l-0.15,0a1.22,1.22 0 0 0 1.06,-1.22z" fill="#fff" id="svg_38" opacity="0.2" transform="translate(-158.5 -94.07)"/>
  <path d="m610.95,655.45s5.21,0.59 5.4,0a11.52,11.52 0 0 0 0,-7.41a2.7,2.7 0 0 0 -2.7,-2.7l0,0a2.7,2.7 0 0 0 -2.7,2.7l0,7.41z" fill="#00695c" id="svg_39" transform="translate(-158.5 -94.07)"/>
  <path d="m610.95,655.45l-2.35,10.8l2.35,0l2.44,-8s3,1.31 3.83,3.92a5.73,5.73 0 0 1 0,4.09l2.53,0l0,-0.12a11.23,11.23 0 0 0 -3.42,-10.69l0,0" fill="#263238" id="svg_40" transform="translate(-158.5 -94.07)"/>
  <path d="m616,655.45a11.52,11.52 0 0 0 0,-7.41a2.7,2.7 0 0 0 -2.53,-2.69l0.17,0a2.7,2.7 0 0 1 2.7,2.7a11.52,11.52 0 0 1 0,7.41c-0.07,0.21 -0.78,0.27 -1.67,0.26c0.77,-0.02 1.33,-0.09 1.33,-0.27z" fill="#fff" id="svg_41" opacity="0.2" transform="translate(-158.5 -94.07)"/>
  <path d="m616.39,648s7,-4.88 6.27,-11.06l-1.56,0s-3.75,8.1 -6.14,8.89s1.43,2.17 1.43,2.17z" fill="#00695c" id="svg_42" transform="translate(-158.5 -94.07)"/>
  <g id="svg_43" opacity="0.2">
   <path d="m613.34,658.42l-2.39,7.87l-0.35,0l2.44,-8l0.3,0.13z" fill="#fff" id="svg_44" transform="translate(-158.5 -94.07)"/>
   <path d="m616,655.49l0.35,0a11.23,11.23 0 0 1 3.42,10.69l0,0.12l-0.35,0l0,-0.12a11.23,11.23 0 0 0 -3.42,-10.69z" fill="#fff" id="svg_45" transform="translate(-158.5 -94.07)"/>
  </g>
  <path d="m622.4,637l0.26,0c0.7,6.19 -6.27,11.06 -6.27,11.06l-0.17,-0.07c0.78,-0.57 6.83,-5.2 6.18,-10.99z" fill="#fff" id="svg_46" opacity="0.2" transform="translate(-158.5 -94.07)"/>
  <path d="m615.84,640.78a4.47,4.47 0 0 0 -0.31,1.09a2.92,2.92 0 0 1 -1.24,1.9a2.74,2.74 0 0 1 -1.21,0.33a2.31,2.31 0 0 1 -1.79,-0.54a2.22,2.22 0 0 1 -0.55,-1.1a3.74,3.74 0 0 1 1,-3.44a3.32,3.32 0 0 1 3.45,-0.73a3.3,3.3 0 0 0 0.66,0.24a1.09,1.09 0 0 0 1,-0.32a0.6,0.6 0 0 1 -0.58,0.78a1.68,1.68 0 0 0 1.29,0.07a1.09,1.09 0 0 1 -1.38,0.55a3.69,3.69 0 0 0 1.56,0.32c-0.11,0 -0.33,0.21 -0.47,0.25a3,3 0 0 1 -0.52,0a1,1 0 0 0 -0.91,0.6z" fill="#263238" id="svg_47" transform="translate(-158.5 -94.07)"/>
  <g id="svg_48" opacity="0.2">
   <path d="m616.2,639a1.67,1.67 0 0 0 0.64,0.16a1.68,1.68 0 0 1 -0.84,-0.16a0.61,0.61 0 0 0 0.61,-0.66l0.14,-0.12a0.6,0.6 0 0 1 -0.55,0.78z" fill="#fff" id="svg_49" transform="translate(-158.5 -94.07)"/>
   <path d="m615.66,638.53a3.3,3.3 0 0 1 -0.66,-0.24a3,3 0 0 0 -1,-0.21a3,3 0 0 1 1.21,0.21a3.3,3.3 0 0 0 0.66,0.24l0.09,0a1,1 0 0 1 -0.3,0z" fill="#fff" id="svg_50" transform="translate(-158.5 -94.07)"/>
   <path d="m617,640.18c0.14,0 0.36,-0.25 0.47,-0.25a3.69,3.69 0 0 1 -1.56,-0.32a1,1 0 0 0 0.35,0.07a3.69,3.69 0 0 0 1.39,0.24c-0.11,0 -0.33,0.21 -0.47,0.25a1.16,1.16 0 0 1 -0.36,0l0.18,0.01z" fill="#fff" id="svg_51" transform="translate(-158.5 -94.07)"/>
   <path d="m612.9,644.1a2.74,2.74 0 0 0 1.21,-0.33a2.92,2.92 0 0 0 1.24,-1.9a4.47,4.47 0 0 1 0.31,-1.09a1,1 0 0 1 0.85,-0.56l0.17,0a1,1 0 0 0 -0.85,0.56a4.47,4.47 0 0 0 -0.31,1.09a2.92,2.92 0 0 1 -1.24,1.9a2.74,2.74 0 0 1 -1.21,0.33l-0.17,0z" fill="#fff" id="svg_52" transform="translate(-158.5 -94.07)"/>
   <path d="m616.41,639.69a1.1,1.1 0 0 0 0.89,-0.57l0.2,-0.06a1.1,1.1 0 0 1 -1.09,0.63z" fill="#fff" id="svg_53" transform="translate(-158.5 -94.07)"/>
  </g>
  <path d="m622.49,636.93s0.52,-0.44 0,-1.22a0.83,0.83 0 0 0 -0.65,-0.4a0.85,0.85 0 0 1 0.82,0.4c0.52,0.78 0,1.22 0,1.22a4.72,4.72 0 0 1 -1,0.11a5.16,5.16 0 0 0 0.83,-0.11z" fill="#fff" id="svg_54" opacity="0.2" transform="translate(-158.5 -94.07)"/>
  <path d="m634.41,627.22s-2.57,8.11 1.74,12.6l1.25,-1s-2.55,-8.85 -1.12,-10.93c-2.52,-0.79 -1.87,-0.67 -1.87,-0.67z" fill="#ff5252" id="svg_55" transform="translate(-158.5 -94.07)"/>
  <path d="m636.19,627.94s0.52,-0.44 0,-1.22s-1.48,-0.17 -1.48,-0.17s-0.35,1.13 0,1.39s1.48,0 1.48,0z" fill="#f6b9ad" id="svg_56" transform="translate(-158.5 -94.07)"/>
  <rect fill="#f6b9ad" height="3.62" id="svg_57" rx="1.12" ry="1.12" transform="translate(1118.15 1179.11) rotate(180)" width="2.44" x="637.1" y="634.78"/>
  <path d="m637.22,639.39s-2.52,-8.74 -1.15,-10.89l0.2,0l0,0l0.06,0c-1.43,2.08 1.12,10.93 1.12,10.93l-1.25,1l-0.11,-0.12l1.13,-0.92z" fill="#fff" id="svg_58" opacity="0.2" transform="translate(-158.5 -94.07)"/>
  <circle cx="479.78" cy="539.27" fill="#f6b9ad" id="svg_59" r="2.7"/>
  <path d="m639.24,637.17l0,-1.17a1.21,1.21 0 0 0 0,-0.26a2.7,2.7 0 0 0 -1.08,-5.1l0.15,0a2.7,2.7 0 0 1 1.24,5.1a1.21,1.21 0 0 1 0,0.26l0,1.18a1.22,1.22 0 0 1 -1.22,1.22l-0.15,0a1.22,1.22 0 0 0 1.06,-1.23z" fill="#fff" id="svg_60" opacity="0.2" transform="translate(-158.5 -94.07)"/>
  <path d="m635.54,646.8s5.21,0.59 5.4,0c0.62,-1.9 -1,-4 -0.21,-5a2.47,2.47 0 0 0 0.21,-2.44a2.7,2.7 0 0 0 -2.7,-2.7l0,0a2.7,2.7 0 0 0 -2.7,2.7l0,7.44z" fill="#ff5252" id="svg_61" transform="translate(-158.5 -94.07)"/>
  <path d="m640.74,641.84a2.47,2.47 0 0 0 0.21,-2.44a2.7,2.7 0 0 0 -2.7,-2.7l-0.17,0a2.7,2.7 0 0 1 2.53,2.69a2.47,2.47 0 0 1 -0.21,2.44c-0.84,1 0.83,3.06 0.21,5c-0.06,0.18 -0.6,0.25 -1.31,0.26c0.88,0 1.59,-0.05 1.66,-0.26c0.61,-1.93 -1.06,-3.99 -0.22,-4.99z" fill="#fff" id="svg_62" opacity="0.2" transform="translate(-158.5 -94.07)"/>
  <path d="m639.83,646.63l0,0a15.46,15.46 0 0 1 2.2,10.69l0,0.12l-1.62,0a8.7,8.7 0 0 0 0,-4.09a6.46,6.46 0 0 0 -2.46,-3.92l-1.57,8l-1.51,0l1.51,-10.8l3.45,0z" fill="#f6b9ad" id="svg_63" transform="translate(-158.5 -94.07)"/>
  <path d="m649,631.09s0.63,-0.26 0.36,-1.17s-1.36,-0.6 -1.36,-0.6s-0.67,1 -0.41,1.33s1.41,0.44 1.41,0.44z" fill="#f6b9ad" id="svg_64" transform="translate(-158.5 -94.07)"/>
  <path d="m639.75,639.83s8.09,-2.62 9.24,-8.74l-1.5,-0.46s-6,6.65 -8.48,6.7s0.74,2.5 0.74,2.5z" fill="#ff5252" id="svg_65" transform="translate(-158.5 -94.07)"/>
  <path d="m648.71,631.1l0.25,0.08c-1.15,6.12 -9.24,8.74 -9.24,8.74l-0.14,-0.11c0.95,-0.34 8.06,-3 9.13,-8.71z" fill="#fff" id="svg_66" opacity="0.2" transform="translate(-158.5 -94.07)"/>
  <g id="svg_67" opacity="0.2">
   <path d="m637.58,649.42l-1.57,8l0.35,0l1.52,-7.78a3.74,3.74 0 0 0 -0.3,-0.22z" fill="#fff" id="svg_68" transform="translate(-158.5 -94.07)"/>
   <path d="m639.83,646.63l-0.35,0a15.46,15.46 0 0 1 2.2,10.69l0,0.12l0.32,0l0,-0.12a15.46,15.46 0 0 0 -2.17,-10.69z" fill="#fff" id="svg_69" transform="translate(-158.5 -94.07)"/>
  </g>
  <path d="m648.82,631s0.63,-0.26 0.36,-1.17a0.83,0.83 0 0 0 -0.5,-0.57a0.85,0.85 0 0 1 0.67,0.62c0.27,0.9 -0.36,1.17 -0.36,1.17a4.72,4.72 0 0 1 -1,-0.19a5.16,5.16 0 0 0 0.83,0.14z" fill="#fff" id="svg_70" opacity="0.2" transform="translate(-158.5 -94.07)"/>
  <path d="m635.54,646.51l-3.28,6.92a40.62,40.62 0 0 1 5.71,0.69c3.63,0.69 5.36,-1 5.36,-1l-2.33,-6.61l-5.46,0z" fill="#263238" id="svg_71" transform="translate(-158.5 -94.07)"/>
  <path d="m636.41,657.4s1.73,0.35 1.38,1l-3.11,0l0.17,-1l1.56,0z" fill="#ff5252" id="svg_72" transform="translate(-158.5 -94.07)"/>
  <path d="m641.94,657.4s1.73,0.35 1.38,1l-3.11,0l0.17,-1l1.56,0z" fill="#ff5252" id="svg_73" transform="translate(-158.5 -94.07)"/>
  <path d="m640.73,631.12s-4.15,5.88 -2.25,8.3l-7.43,-0.17s2.07,-13.32 9.68,-8.13z" fill="#fccc63" id="svg_74" transform="translate(-158.5 -94.07)"/>
  <path d="m640.73,631.12a6.31,6.31 0 0 0 -2.9,-1.18a7.32,7.32 0 0 1 2,1s-4.15,5.88 -2.25,8.3l-6.54,-0.15l0,0.15l7.43,0.17c-1.89,-2.41 2.26,-8.29 2.26,-8.29z" fill="#fff" id="svg_75" opacity="0.2" transform="translate(-158.5 -94.07)"/>
  <path d="m641,646.51l-0.52,0l2.34,6.57a5.28,5.28 0 0 1 -3.44,1.2a5.5,5.5 0 0 0 4,-1.2l-2.38,-6.57z" fill="#fff" id="svg_76" opacity="0.2" transform="translate(-158.5 -94.07)"/>
  <path d="m636.41,657.4l-0.35,0s1.73,0.35 1.38,1l0.35,0c0.35,-0.66 -1.38,-1 -1.38,-1z" fill="#fff" id="svg_77" opacity="0.2" transform="translate(-158.5 -94.07)"/>
  <path d="m641.94,657.4l-0.35,0s1.73,0.35 1.38,1l0.35,0c0.35,-0.66 -1.38,-1 -1.38,-1z" fill="#fff" id="svg_78" opacity="0.2" transform="translate(-158.5 -94.07)"/>
  <polyline fill="none" id="svg_79" points="725.52 400.93 715.88 347.09 746.41 345.6 746.41 400.93 767.3 400.93 788.19 341.47" stroke="#b3b3b3" stroke-miterlimit="10"/>
  <rect fill="#2762f4" height="59.46" id="svg_80" rx="27.3" ry="27.3" width="83.56" x="705.63" y="395.3"/>
  <path d="m917.77,489.37l-24.1,0a29.82,29.82 0 0 0 -29.73,29.73l0,0c0,0.68 0,1.34 0.08,2a29.82,29.82 0 0 1 29.65,-27.72l24.1,0a29.82,29.82 0 0 1 29.65,27.72c0,-0.66 0.08,-1.33 0.08,-2l0,0a29.82,29.82 0 0 0 -29.73,-29.73z" id="svg_81" opacity="0.05" transform="translate(-158.5 -94.07)"/>
  <path d="m1031.67,328.46c0,68.66 -57.36,124.32 -118.43,124.32s-123.66,-55.66 -123.66,-124.32s62.59,-124.32 123.67,-124.32s118.42,55.66 118.42,124.32z" fill="url(#1fbefcf2-1d0d-411f-b7ef-97a6712cae01)" id="svg_84" transform="translate(-158.5 -94.07)"/>
  <path d="m1026,328.46c0,65.45 -54.67,118.5 -112.89,118.5s-117.88,-53.05 -117.88,-118.5s59.68,-118.46 117.89,-118.46s112.88,53 112.88,118.46z" fill="#2762f4" id="svg_85" transform="translate(-158.5 -94.07)"/>
  <rect fill="#2762f4" height="9.15" id="svg_86" width="26.19" x="736.53" y="357.05"/>
  <g id="svg_87" opacity="0.2">
   <path d="m913.12,209.55c-1.39,0 -2.77,0 -4.16,0.1c56.63,2.45 108.73,54.51 108.73,118.4s-52.1,115.95 -108.69,118.4c1.39,0.06 2.78,0.1 4.16,0.1c58.21,0 112.89,-53.05 112.89,-118.5s-54.72,-118.5 -112.93,-118.5z" id="svg_88" transform="translate(-158.5 -94.07)"/>
  </g>
  <g id="svg_89" opacity="0.2">
   <path d="m801.9,328.46c0,-64.51 58,-117 115.38,-118.46c-0.83,0 -1.66,0 -2.49,0c-58.21,0 -117.88,53.05 -117.88,118.5s59.66,118.5 117.87,118.5c0.83,0 1.66,0 2.49,0c-57.4,-1.56 -115.37,-54 -115.37,-118.54z" fill="#fff" id="svg_90" transform="translate(-158.5 -94.07)"/>
  </g>
  <rect fill="#2762f4" height="24.53" id="svg_91" width="75.26" x="713.25" y="336.26"/>
  <path d="m871.75,218.59s-89.39,102.18 0,219.74l29.52,-0.1s-81.49,-97.12 -3.74,-227l-14.53,3.31l-11.25,4.05z" fill="#fff" id="svg_92" opacity="0.2" transform="translate(-158.5 -94.07)"/>
  <path d="m949.5,217s89.39,103.74 0,221.3l-29.52,-0.1s81.49,-98 3.74,-227.85l14.55,2.91l11.23,3.74z" fill="#fff" id="svg_93" opacity="0.2" transform="translate(-158.5 -94.07)"/>
 </g>
</svg>